<svg id="svg" fill="#A1ABB3" stroke="#A1ABB3" width="200" height="200" version="1.1" viewBox="144 144 512 512" xmlns="http://www.w3.org/2000/svg">
    <g id="IconSvg_bgCarrier" stroke-width="0"></g>
    <g id="IconSvg_tracerCarrier" stroke-linecap="round" stroke-linejoin="round" stroke="#CCCCCC" stroke-width="0">
      <path xmlns="http://www.w3.org/2000/svg" d="m596.8 240.2-37-36.996c-11.02-11.02-29.125-11.02-40.934 0l-300.71 300.71-24.402 102.34 102.34-24.402 300.71-300.71c11.02-11.809 11.02-29.914 0-40.938zm-360.54 268.44 258.2-258.2 55.105 55.105-258.2 258.2zm-6.3008 14.957 46.445 46.445-61.402 14.957zm355.82-254.27-24.402 24.402-55.105-55.105 24.402-24.402c4.7227-4.7227 13.383-4.7227 18.105 0l37 37c2.3633 2.3633 3.9375 5.5117 3.9375 9.4453 0 3.1484-1.5742 6.2969-3.9375 8.6602z"></path>

      </g>
     <g id="IconSvg_iconCarrier">
      <path xmlns="http://www.w3.org/2000/svg" d="m596.8 240.2-37-36.996c-11.02-11.02-29.125-11.02-40.934 0l-300.71 300.71-24.402 102.34 102.34-24.402 300.71-300.71c11.02-11.809 11.02-29.914 0-40.938zm-360.54 268.44 258.2-258.2 55.105 55.105-258.2 258.2zm-6.3008 14.957 46.445 46.445-61.402 14.957zm355.82-254.27-24.402 24.402-55.105-55.105 24.402-24.402c4.7227-4.7227 13.383-4.7227 18.105 0l37 37c2.3633 2.3633 3.9375 5.5117 3.9375 9.4453 0 3.1484-1.5742 6.2969-3.9375 8.6602z"></path>

      </g>
      </svg>